<svg id="Layer_3" enable-background="new 0 0 64 64" height="512" viewBox="0 0 64 64" width="512" xmlns="http://www.w3.org/2000/svg"><g><g><path d="m33 16c1.298 3.895 3.825 7.263 7.2 9.6 5.079 3.516 8.962 8.499 11.131 14.283l.211.563c1.625 4.334 2.458 8.925 2.458 13.554 0 4.418-3.582 8-8 8h-32c-2.209 0-4-1.791-4-4 0-2.209 1.791-4 4-4h4c1.105 0 2 .895 2 2 0 1.105-.895 2-2 2h-1 8l.591-10.044c.27-4.59-.388-9.188-1.934-13.518-1.748-4.894-2.358-10.122-1.784-15.288l.127-1.15.032-.307" fill="#8892a0"/><path d="m22.032 17.693-.032.307-.128 1.15c-.06.538-.099 1.077-.133 1.615 1.487 1.417 3.321 2.266 5.313 2.266 2.863 0 5.406-1.738 7.044-4.431-.425-.836-.797-1.702-1.096-2.6" fill="#4d5d7a"/><g><path d="m16.363 42.5h29.275v1.999h-29.275z" fill="#4d5d7a" transform="matrix(.137 -.991 .991 .137 -16.331 68.259)"/></g><g><path d="m37.026 58.553-1.005-.67c-3.144-2.096-5.021-5.603-5.021-9.383s1.877-7.287 5.021-9.383l1.424-.949 1.109 1.664-1.424.949c-2.586 1.724-4.13 4.61-4.13 7.719s1.544 5.995 4.131 7.719l1.005.67z" fill="#4d5d7a"/></g><g><path d="m32.456 59h-19.456v-2h19.456c5.55 0 10.997-.988 16.192-2.937l.703 1.873c-5.42 2.033-11.105 3.064-16.895 3.064z" fill="#4d5d7a"/></g><path d="m21.018 11.015-.018-.015c-1.281-1.281-2-3.017-2-4.828v-4.172l5 6h6l5-6v4.172c0 1.811-.719 3.548-2 4.828s-.018.015-.018.015c.656.805 1.018 1.815 1.018 2.862 0 1.345-.597 2.621-1.631 3.482l-3.601 3.001c-.496.413-1.122.64-1.768.64-.646 0-1.272-.227-1.768-.64l-3.601-3.001c-1.034-.861-1.631-2.137-1.631-3.482 0-1.052.366-2.066 1.026-2.872z" fill="#8892a0"/></g><path d="m52.268 39.532c-2.251-6.003-6.228-11.105-11.498-14.754-2.914-2.017-5.181-4.906-6.481-8.198.457-.816.711-1.741.711-2.703 0-.988-.278-1.926-.761-2.759 1.14-1.393 1.761-3.122 1.761-4.947v-4.171c0-.421-.264-.797-.659-.94-.396-.142-.839-.023-1.109.3l-4.701 5.64h-5.062l-4.7-5.64c-.271-.324-.714-.442-1.109-.3-.396.143-.66.519-.66.94v4.171c0 1.824.621 3.553 1.761 4.947-.483.833-.761 1.771-.761 2.759 0 1.642.722 3.187 1.98 4.24l-.103.922c-.587 5.285.048 10.726 1.837 15.734 1.509 4.225 2.141 8.64 1.878 13.123l-.535 9.104h-3.242c.113-.314.185-.648.185-1 0-1.654-1.346-3-3-3h-4c-2.757 0-5 2.243-5 5s2.243 5 5 5h32c4.963 0 9-4.038 9-9 0-4.764-.849-9.442-2.521-13.905zm-32.268-34.77 3.231 3.878c.191.228.472.36.769.36h6c.297 0 .578-.132.769-.36l3.231-3.878v1.409c0 1.217-.376 2.375-1.064 3.35l-.229-.229-1.414 1.415.673.672c.667.668 1.034 1.555 1.034 2.498 0 1.051-.463 2.04-1.271 2.713l-3.6 3c-.633.527-1.626.527-2.257 0l-3.602-3.001c-.807-.672-1.27-1.66-1.27-2.712 0-.943.367-1.831 1.034-2.498l.673-.672-1.414-1.415-.229.229c-.688-.974-1.064-2.132-1.064-3.35zm26 56.238h-32c-1.654 0-3-1.346-3-3s1.346-3 3-3h4c.552 0 1 .449 1 1s-.448 1-1 1h-1-4v2h4 1 14.456c5.79 0 11.475-1.031 16.896-3.063l-.703-1.873c-3.509 1.316-7.136 2.183-10.829 2.614l-.689-.459c-2.587-1.724-4.131-4.61-4.131-7.719s1.544-5.995 4.131-7.719l1.424-.949-1.109-1.664-1.424.949c-1.845 1.23-3.238 2.953-4.087 4.925l2.056-14.906-1.98-.273-3.882 28.137h-2.069l.529-8.985c.279-4.752-.391-9.434-1.991-13.913-1.641-4.597-2.244-9.58-1.764-14.439l1.759 1.466c.675.561 1.529.871 2.407.871s1.732-.31 2.409-.872l3.427-2.857c1.489 3.258 3.843 6.109 6.794 8.152 4.935 3.416 8.656 8.192 10.764 13.812l.211.563c1.589 4.236 2.395 8.679 2.395 13.202 0 3.86-3.141 7-7 7zm-14.891-10.977c.363 2.676 1.671 5.124 3.694 6.913-.78.039-1.562.064-2.347.064h-2.309z"/></g></svg>