<svg height="512" viewBox="0 0 512 512" width="512" xmlns="http://www.w3.org/2000/svg"><g id="filled_outline" data-name="filled outline"><path d="m353.606 304v80l8 32 24 8-8 32h-40l-16-72v-48z" fill="#dbdbdb"/><path d="m128 448h-39.27a43.881 43.881 0 0 1 -39.25-24.26 241.171 241.171 0 0 1 -24-134.57l.13-1.17c2.24.89 4.42 1.88 6.56 2.94a87.7 87.7 0 0 1 26.02 19.76 87.734 87.734 0 0 1 19.25 34.72 34.5 34.5 0 0 0 17.73 21.36l2.44 1.22 16 56 4.8 8z" fill="#744630"/><path d="m118.41 432h-21.68a43.881 43.881 0 0 1 -39.25-24.26 241.23 241.23 0 0 1 -25.48-107.9c0-2.96.05-5.93.17-8.9a87.7 87.7 0 0 1 26.02 19.76 87.734 87.734 0 0 1 19.25 34.72 34.5 34.5 0 0 0 17.73 21.36l2.44 1.22 16 56z" fill="#8f563b"/><path d="m449.61 80v40l-24 16-24.5 4.9-15.5 3.1-2.2 7.7-8.96 31.36-2.2 7.7c-.07.24-.14.48-.19.73a41.1 41.1 0 0 0 -1.29 7.29 42.675 42.675 0 0 0 -.02 7.15c.1 1.19.24 2.37.44 3.55a133.312 133.312 0 0 1 -8.97 74.41l-8.61 20.11-32 32v48l7.04 31.68 24.96 8.32-8 32h-40l-24-88-13.76 13.76a158.858 158.858 0 0 1 -41.32 29.78l-8.92 4.46h8.71a23.3 23.3 0 0 1 23.29 23.29v16.71h-114.03a21.963 21.963 0 0 1 -21.97-21.97v-10.03l-16-56 9.59-35.18a159.6 159.6 0 0 1 58.21-85.67l55.57-41.68a151.657 151.657 0 0 0 44.63-53.47l16-16 2.53-7.58v-.01l21.47-64.41 40-16h40l16 32z" fill="#eaeae8"/><circle cx="369.606" cy="88" fill="#8f563b" r="8"/><path d="m243.88 424h-49.28a8 8 0 0 1 0-16 29.069 29.069 0 0 0 26.14-16.15 29.454 29.454 0 0 0 2.52-18.81 49.018 49.018 0 0 0 -26.29-34.42l-6.94-3.46a8 8 0 0 1 7.15-14.32l6.94 3.47a64.9 64.9 0 0 1 34.83 45.6 45.423 45.423 0 0 1 -9.81 38.09l-11.53 8h8.71a23.21 23.21 0 0 1 17.56 8z" fill="#dbdbdb"/><path d="m425.606 80a24 24 0 0 0 24 24v-24z" fill="#8f563b"/><path d="m401.11 140.9-15.5 3.1-2.2 7.7-24.33-8.11a8 8 0 0 1 -5.47-7.59v-16a8 8 0 0 1 16 0v10.23l30.06 10.02a7.816 7.816 0 0 1 1.44.65z" fill="#dbdbdb"/><path d="m380.25 190.61a8 8 0 0 1 -7.85 8.14l-1.63.03-4.1.08c-.63.01-1.26.02-1.88.02a98.139 98.139 0 0 1 -89.24-56.82l6.06-6.06 2.53-7.58a4.841 4.841 0 0 1 .49.18 4.05 4.05 0 0 1 .56.26 2.4 2.4 0 0 1 .39.2c.16.09.31.18.46.28a8.018 8.018 0 0 1 2.92 3.51 82.238 82.238 0 0 0 75.84 50.03c.52 0 1.04-.01 1.57-.02l5.73-.1a7.661 7.661 0 0 1 2.35.3 8.045 8.045 0 0 1 5.8 7.55z" fill="#4799cf"/><path d="m401.61 200a15.992 15.992 0 1 1 -16-16 16 16 0 0 1 16 16z" fill="#f3af3e"/><path d="m392 200a16 16 0 0 1 -11.19 15.26 16 16 0 0 1 0-30.52 16 16 0 0 1 11.19 15.26z" fill="#ea9d2d"/><circle cx="456" cy="424" fill="#ea9d2d" r="32"/><path d="m488 424a32 32 0 0 1 -32 32 71.568 71.568 0 0 0 0-64 32 32 0 0 1 32 32z" fill="#6b9777"/><path d="m337.61 96v27.16a32.034 32.034 0 0 1 -32 32.01c-.88 0-1.76-.04-2.64-.11a31.909 31.909 0 0 1 -15.11-5.28l-10.69-7.12a7.93 7.93 0 0 1 -1.22-1l5.66-5.66 2.53-7.58a4.841 4.841 0 0 1 .49.18 4.05 4.05 0 0 1 .56.26 2.4 2.4 0 0 1 .39.2c.16.09.31.18.46.28l10.69 7.13a16.005 16.005 0 0 0 24.88-13.31v-27.16a8 8 0 0 1 16 0z" fill="#c3c3c3"/><circle cx="369.606" cy="88" r="8"/><path d="m54.736 443.312a51.828 51.828 0 0 0 33.994 12.688h26.493a29.852 29.852 0 0 0 20.356 8h114.027a8 8 0 0 0 8-8v-16.709a31.3 31.3 0 0 0 -15.126-26.784l10.705-5.352a8.02 8.02 0 0 0 2.079-1.5l22.252-22.255 20.373 74.7a8 8 0 0 0 7.717 5.9h72a8 8 0 0 0 7.761-6.06l8-32a8 8 0 0 0 -5.23-9.53l-19.83-6.61-6.7-26.784v-77.382l7.968-18.592a140.987 140.987 0 0 0 11.2-63.53 24 24 0 1 0 4.831-47.512c-.278 0-.553.012-.829.021l7.181-25.133 35.218-7.043a7.994 7.994 0 0 0 2.868-1.189l24-16a8 8 0 0 0 3.562-6.656v-40a8 8 0 0 0 -8-8h-43.055l-13.789-27.578a8 8 0 0 0 -7.156-4.422h-40a7.993 7.993 0 0 0 -2.97.572l-40 16a8 8 0 0 0 -4.619 4.9l-8 24-15.4 46.21-14.664 14.663a8.033 8.033 0 0 0 -1.5 2.079 144.283 144.283 0 0 1 -42.266 50.643l-55.576 41.682a168.392 168.392 0 0 0 -61.128 89.974l-6.754 24.757a26.7 26.7 0 0 1 -2.512-2.628 26.325 26.325 0 0 1 -5.084-9.629 96.276 96.276 0 0 0 -21-37.882 96.286 96.286 0 0 0 -35.551-24.77 8 8 0 0 0 -10.92 6.546l-.13 1.166a249.176 249.176 0 0 0 24.8 139.034 51.527 51.527 0 0 0 12.404 15.995zm280.742-33.788-5.868-26.4v-43.811l16-16v60.687a7.93 7.93 0 0 0 .24 1.94l7.374 29.5zm40.575 19.723-4.689 18.753h-15.512l5.515-22.06a8.088 8.088 0 0 0 .229-1.512zm17.553-229.247a7.995 7.995 0 0 1 -14.956 3.937 34.975 34.975 0 0 1 .8-9.036 8 8 0 0 1 14.158 5.1zm48-112v5.853a16.116 16.116 0 0 1 -5.852-5.853zm-94.459-32h33.515l13.789 27.578a8 8 0 0 0 7.155 4.422h17.013a32.12 32.12 0 0 0 22.987 22.987v4.732l-19.121 12.747-36.364 7.273-16.515-5.5v-10.239a8 8 0 0 0 -16 0v16a8 8 0 0 0 5.47 7.59l16.734 5.577-9.629 33.7c-.462.008-.922.013-1.384.013a82.178 82.178 0 0 1 -61.808-27.822c.871.071 1.743.117 2.616.117a32.039 32.039 0 0 0 32-32.018v-27.157a8 8 0 0 0 -16 0v27.155a16 16 0 0 1 -24.876 13.314l-5.6-3.735 7.967-23.9 6.1-18.3v-.008l6.823-20.472zm-176.938 197.548 55.575-41.682a160.388 160.388 0 0 0 46.385-55.115l7.253-7.252a98.045 98.045 0 0 0 82.214 49.322c-.019.391-.03.783-.03 1.179a23.905 23.905 0 0 0 1.282 7.722c.107 1.03.237 2.057.407 3.077a125.03 125.03 0 0 1 -8.424 69.94l-8.011 18.694-30.911 30.91a8 8 0 0 0 -2.343 5.657v48a7.966 7.966 0 0 0 .191 1.735l7.04 31.68c.019.085.051.165.072.249.055.213.113.424.184.628.042.124.093.243.141.364q.1.262.226.515c.055.112.11.224.17.333.1.185.21.363.324.538.053.082.1.166.158.246a7.9 7.9 0 0 0 .539.681c.076.086.159.166.239.249.13.134.262.266.4.391.1.09.2.177.3.262.14.114.285.22.432.325.1.072.2.147.305.215a8.225 8.225 0 0 0 .737.419c.1.049.2.09.3.136.19.086.382.165.578.235.057.021.11.049.167.069l17.933 5.977-4.682 18.753h-27.643l-22.393-82.1a8 8 0 0 0 -13.375-3.553l-31.082 31.082-9.4 4.7a45.443 45.443 0 0 0 3.482-28.219 64.873 64.873 0 0 0 -34.824-45.594l-6.937-3.468a8 8 0 1 0 -7.157 14.31l6.939 3.469a48.977 48.977 0 0 1 26.29 34.421 29.37 29.37 0 0 1 -2.518 18.8 29.063 29.063 0 0 1 -26.142 16.152 8 8 0 0 0 0 16h31.714a15.308 15.308 0 0 1 15.291 15.291v8.709h-106.026a13.99 13.99 0 0 1 -13.973-13.974v-9.782c0-.068 0-.138 0-.206v-.061a7.983 7.983 0 0 0 -.07-1.009c-.006-.044-.011-.088-.017-.131a8.052 8.052 0 0 0 -.215-1.034l-15.389-53.86 9-33.012a152.305 152.305 0 0 1 55.294-81.383zm-137.683 46.652a80.216 80.216 0 0 1 19.728 15.859 80.206 80.206 0 0 1 17.5 31.561 42.486 42.486 0 0 0 21.127 25.946l14.729 51.551v8.906a30 30 0 0 0 .6 5.974h-17.48a35.88 35.88 0 0 1 -32.094-19.838 234.4 234.4 0 0 1 -24.636-104.319c0-5.2.177-10.43.526-15.64z"/><path d="m456.336 384.009c-.057 0-.114 0-.171 0s-.11 0-.165 0a40 40 0 0 0 -.072 80h.066.042a40 40 0 0 0 .3-79.99zm-24.336 39.991a24.039 24.039 0 0 1 19.026-23.478 63.932 63.932 0 0 1 0 46.956 24.039 24.039 0 0 1 -19.026-23.478zm36.92 20.209a80.257 80.257 0 0 0 0-40.418 23.97 23.97 0 0 1 0 40.418z"/></g></svg>